Coordinates
version=1
nRows=18
nColumns=22
inDegrees=yes

Units are S.I. units (second, meters, Newtons, ...)
If the header above contains a line with 'inDegrees', this indicates whether rotational values are in degrees (yes) or radians (no).

endheader
time	pelvis_tilt	pelvis_list	pelvis_rotation	pelvis_tx	pelvis_ty	pelvis_tz	hip_flexion_r	hip_adduction_r	hip_rotation_r	knee_angle_r	ankle_angle_r	subtalar_angle_r	hip_flexion_l	hip_adduction_l	hip_rotation_l	knee_angle_l	ankle_angle_l	subtalar_angle_l	lumbar_extension	lumbar_bending	lumbar_rotation
      5.51000000	     -1.68325211	      0.82282588	    -95.11865346	      0.81561795	      0.92709607	      0.46238469	     17.94920767	     12.65662307	     -8.54785576	    -23.78321285	      8.40775267	    -12.63583179	     13.54000084	     -8.17896279	     -5.95861819	    -67.85763612	      2.98034509	     12.29429547	     -7.01739685	      2.51176037	     -3.92764861
      5.52000000	     -1.75636987	      0.82966255	    -96.28783928	      0.81227667	      0.92799756	      0.46984011	     17.00564450	     13.12708310	     -7.63730133	    -23.28851669	      8.53747839	    -12.30756914	     15.07193831	     -8.69559675	     -5.69510405	    -69.25844162	      3.34988666	     11.19395484	     -7.04974131	      2.41343749	     -3.30931505
      5.53000000	     -1.82323706	      0.84460946	    -97.46518703	      0.80890268	      0.92892632	      0.47715151	     16.03389779	     13.56823868	     -6.68462573	    -22.74220080	      8.62053815	    -12.00031148	     16.56897502	     -9.14932459	     -5.32642798	    -70.39491618	      3.69746995	     10.13245731	     -7.07180520	      2.31392477	     -2.70788251
      5.54000000	     -1.89183828	      0.85793507	    -98.64574128	      0.80553430	      0.92985056	      0.48434964	     15.03908872	     13.97795245	     -5.71929163	    -22.17421816	      8.73002426	    -11.69997321	     18.00988364	     -9.54503574	     -4.86504575	    -71.26697310	      4.04155398	      9.08805825	     -7.09647360	      2.22733109	     -2.11866244
      5.55000000	     -1.95620504	      0.87054159	    -99.83055526	      0.80218513	      0.93075410	      0.49144226	     14.03200858	     14.34924518	     -4.74250697	    -21.59925583	      8.86780521	    -11.39853173	     19.38661528	     -9.87695262	     -4.33506396	    -71.86838012	      4.39205719	      8.05801772	     -7.12486675	      2.14895818	     -1.53497543
      5.56000000	     -2.00510474	      0.88634616	   -101.03208172	      0.79885142	      0.93161477	      0.49838312	     13.03597836	     14.68155254	     -3.68687673	    -21.04271354	      8.94797026	    -11.13681380	     20.70066389	    -10.13580950	     -3.75975190	    -72.20448995	      4.77280508	      7.14661030	     -7.16003046	      2.06702381	     -0.95942974
      5.57000000	     -2.05548590	      0.92262502	   -102.25386197	      0.79552201	      0.93237085	      0.50521913	     12.06169643	     14.98854404	     -2.62685986	    -20.49768372	      9.05668390	    -10.93211721	     21.96170264	    -10.36789424	     -3.17694988	    -72.28711043	      5.21943487	      6.38418629	     -7.17994670	      2.00544830	     -0.35876523
      5.58000000	     -2.06602880	      0.93757323	   -103.48040552	      0.79229158	      0.93306749	      0.51185769	     11.11310658	     15.22239497	     -1.49720887	    -20.02496003	      9.19718875	    -10.68846522	     23.14007043	    -10.49242877	     -2.58171031	    -72.11376395	      5.61917811	      5.48104687	     -7.24396543	      1.91509551	      0.20105738
      5.59000000	     -2.06596187	      0.98096575	   -104.73059695	      0.78908972	      0.93361865	      0.51836299	     10.20962784	     15.42517349	     -0.36003028	    -19.57670592	      9.35136121	    -10.52417208	     24.27710286	    -10.59055486	     -2.01648550	    -71.70550740	      6.07702928	      4.76207423	     -7.28696658	      1.83678957	      0.78612056
      5.60000000	     -2.04783466	      1.05795237	   -106.00232114	      0.78593194	      0.93401621	      0.52474386	      9.36072380	     15.59328945	      0.79218419	    -19.15617325	      9.50671593	    -10.43874996	     25.37826253	    -10.65641741	     -1.48868319	    -71.06786913	      6.56870539	      4.21962530	     -7.29966388	      1.76487528	      1.38818335
      5.61000000	     -1.99039343	      1.09608315	   -107.28023559	      0.78288617	      0.93439236	      0.53100214	      8.50578737	     15.68309170	      1.99075968	    -18.77486582	      9.67397134	    -10.36852623	     26.36392930	    -10.62339272	     -0.99567164	    -70.18408811	      6.96809511	      3.57357567	     -7.36393225	      1.65733342	      1.96462362
      5.62000000	     -1.93402914	      1.14649859	   -108.55300496	      0.77993483	      0.93466791	      0.53718325	      7.68883737	     15.74685604	      3.18367518	    -18.42966326	      9.86020351	    -10.34334256	     27.28861091	    -10.55447292	     -0.51577408	    -69.08161315	      7.35643370	      3.05580676	     -7.42282859	      1.57587830	      2.52730391
      5.63000000	     -1.87537152	      1.19690148	   -109.81629362	      0.77706147	      0.93488266	      0.54331541	      6.89387275	     15.77751295	      4.36853382	    -18.11206339	     10.04931099	    -10.33829231	     28.13435086	    -10.43642862	     -0.04166195	    -67.76063592	      7.69600974	      2.65415656	     -7.48438700	      1.50616804	      3.07452454
      5.64000000	     -1.82779825	      1.27984182	   -111.06230302	      0.77428413	      0.93498269	      0.54938477	      6.17019599	     15.80395420	      5.54967654	    -17.85303251	     10.25851905	    -10.33067838	     28.94134765	    -10.28797056	      0.45320917	    -66.24390059	      8.00477832	      2.42317517	     -7.52157171	      1.47975649	      3.59069291
      5.65000000	     -1.77611529	      1.32923518	   -112.28653704	      0.77157298	      0.93511931	      0.55546740	      5.42591217	     15.77999031	      6.70145946	    -17.60328860	     10.45111167	    -10.31383231	     29.61812713	    -10.06667263	      0.96120236	    -64.50013436	      8.22689788	      2.28234570	     -7.59017069	      1.44589024	      4.08149807
      5.66000000	     -1.73469897	      1.38853049	   -113.46899810	      0.76895550	      0.93520728	      0.56154599	      4.72167108	     15.73995867	      7.81158112	    -17.39300400	     10.64772575	    -10.27947902	     30.22282557	     -9.79140257	      1.53120570	    -62.55821082	      8.40741714	      2.29648422	     -7.65247194	      1.43985250	      4.52472559
      5.67000000	     -1.69934175	      1.45061588	   -114.60910380	      0.76640379	      0.93526130	      0.56764487	      4.04390001	     15.67853709	      8.86646262	    -17.20816579	     10.84254784	    -10.21863486	     30.73992098	     -9.46290935	      2.16647040	    -60.41828181	      8.55721549	      2.48680389	     -7.71042836	      1.44911756	      4.93346806
      5.68000000	     -1.68497727	      1.48204374	   -115.67560617	      0.76393753	      0.93534983	      0.57382016	      3.34248988	     15.59148322	      9.82197062	    -17.02347933	     11.01660945	    -10.08613753	     31.12240626	     -9.06879465	      2.90673199	    -58.07601176	      8.74850991	      2.98087141	     -7.80431373	      1.47422255	      5.26976585
